<svg width="24" height="24" viewBox="0 0 24 24" fill="none" xmlns="http://www.w3.org/2000/svg">
<g id="book-bookmark-bold" clip-path="url(#clip0_1_97)">
<path id="Vector" d="M16.125 3V12L13.125 9.75L10.125 12V3" stroke="#3A3D44" stroke-width="1.5" stroke-linecap="round" stroke-linejoin="round"/>
<path id="Vector_2" d="M4.50002 19.5C4.49878 19.2042 4.55613 18.911 4.66876 18.6375C4.7814 18.3639 4.94708 18.1154 5.15626 17.9062C5.36544 17.6971 5.61397 17.5314 5.88752 17.4187C6.16106 17.3061 6.4542 17.2487 6.75002 17.25H19.5V2.99999H6.75002C6.4542 2.99875 6.16106 3.0561 5.88752 3.16873C5.61397 3.28137 5.36544 3.44705 5.15626 3.65623C4.94708 3.86541 4.7814 4.11394 4.66876 4.38749C4.55613 4.66103 4.49878 4.95417 4.50002 5.24999V19.5Z" stroke="#3A3D44" stroke-width="1.5" stroke-linecap="round" stroke-linejoin="round"/>
<path id="Vector_3" d="M4.5 19.5V21H18" stroke="#3A3D44" stroke-width="1.5" stroke-linecap="round" stroke-linejoin="round"/>
</g>
<defs>
<clipPath id="clip0_1_97">
<rect width="24" height="24" fill="white"/>
</clipPath>
</defs>
</svg>
