<svg width="24" height="24" viewBox="0 0 24 24" fill="none" xmlns="http://www.w3.org/2000/svg">
<path d="M2.2711 19.897L2.27105 19.8967L0.786404 11.0112L0.786127 11.0096C0.695697 10.4756 0.776255 9.82236 1.01564 9.19246C1.25501 8.56262 1.62883 8.02019 2.05492 7.68018L2.05595 7.67935L9.7917 1.48401L9.7935 1.48256C11.0107 0.501527 12.9754 0.505851 14.2124 1.49543L14.2126 1.4956L21.946 7.67785C21.9464 7.67819 21.9469 7.67852 21.9473 7.67885C22.3684 8.01879 22.74 8.56146 22.9798 9.19246C23.2195 9.82311 23.303 10.4777 23.2171 11.0133C23.217 11.014 23.2169 11.0147 23.2167 11.0154L21.7331 19.895C21.733 19.8953 21.733 19.8957 21.7329 19.8961C21.4584 21.5119 19.8837 22.8424 18.253 22.8424H5.7508C4.08463 22.8424 2.54551 21.5435 2.2711 19.897ZM9.9054 1.62867L9.90325 1.63039L2.16757 7.82573L2.16757 7.82573L2.16539 7.82749C1.71538 8.19066 1.38181 8.72934 1.17812 9.26257C0.974536 9.79554 0.863856 10.4196 0.95896 10.9902L0.95901 10.9905L2.44364 19.876L2.44417 19.8791C2.70662 21.4101 4.18982 22.668 5.7508 22.668H18.253C19.8157 22.668 21.298 21.4082 21.5598 19.8668L21.5601 19.8649L23.0447 10.9794L23.0448 10.9791C23.1403 10.406 23.0253 9.77816 22.8211 9.24608C22.6169 8.71418 22.2837 8.17411 21.8372 7.81533L21.8358 7.81415L14.1 1.62998L14.1001 1.62991L14.0911 1.62298C13.4934 1.15974 12.7331 0.941181 11.9908 0.941181C11.2603 0.941181 10.4956 1.15957 9.9054 1.62867Z" stroke="#3A3D44" stroke-width="1.5"/>
<path d="M12.002 15.7986C10.4181 15.7986 9.12415 14.5047 9.12415 12.9207C9.12415 11.3368 10.4181 10.0429 12.002 10.0429C13.5859 10.0429 14.8799 11.3368 14.8799 12.9207C14.8799 14.5047 13.5859 15.7986 12.002 15.7986ZM12.002 10.2173C10.5162 10.2173 9.29855 11.4349 9.29855 12.9207C9.29855 14.4066 10.5162 15.6242 12.002 15.6242C13.4878 15.6242 14.7055 14.4066 14.7055 12.9207C14.7055 11.4349 13.4878 10.2173 12.002 10.2173Z" stroke="#3A3D44" stroke-width="1.5"/>
</svg>
