<svg width="30" height="30" viewBox="0 0 30 30" fill="none" xmlns="http://www.w3.org/2000/svg">
<circle cx="15" cy="15" r="15" fill="#ECE9FF"/>
<g clip-path="url(#clip0_1_132)">
<path d="M22.0375 15C22.039 15.2051 21.9766 15.4055 21.859 15.5735C21.7414 15.7415 21.5744 15.8687 21.3813 15.9375L17.3875 17.3875L15.9375 21.3813C15.8665 21.5726 15.7386 21.7377 15.571 21.8542C15.4034 21.9708 15.2041 22.0333 15 22.0333C14.7959 22.0333 14.5966 21.9708 14.429 21.8542C14.2614 21.7377 14.1335 21.5726 14.0625 21.3813L12.6125 17.3875L8.61875 15.9375C8.42737 15.8665 8.26232 15.7386 8.14577 15.571C8.02921 15.4034 7.96674 15.2041 7.96674 15C7.96674 14.7959 8.02921 14.5966 8.14577 14.429C8.26232 14.2614 8.42737 14.1335 8.61875 14.0625L12.6125 12.6125L14.0625 8.61875C14.1335 8.42737 14.2614 8.26232 14.429 8.14577C14.5966 8.02921 14.7959 7.96674 15 7.96674C15.2041 7.96674 15.4034 8.02921 15.571 8.14577C15.7386 8.26232 15.8665 8.42737 15.9375 8.61875L17.3875 12.6125L21.3813 14.0625C21.5744 14.1313 21.7414 14.2585 21.859 14.4265C21.9766 14.5945 22.039 14.7949 22.0375 15Z" fill="#7662EA"/>
</g>
<defs>
<clipPath id="clip0_1_132">
<rect width="16" height="16" fill="white" transform="translate(7 7)"/>
</clipPath>
</defs>
</svg>
